<svg xmlns="http://www.w3.org/2000/svg" viewBox="0 0 720 160" font-family="'Microsoft YaHei', 'PingFang SC', sans-serif">
  <defs>
    <marker id="m1" markerWidth="8" markerHeight="6" refX="8" refY="3" orient="auto"><path d="M0,0 L8,3 L0,6 Z" fill="#e74c3c"/></marker>
    <marker id="m2" markerWidth="8" markerHeight="6" refX="8" refY="3" orient="auto"><path d="M0,0 L8,3 L0,6 Z" fill="#3498db"/></marker>
    <marker id="m3" markerWidth="8" markerHeight="6" refX="8" refY="3" orient="auto"><path d="M0,0 L8,3 L0,6 Z" fill="#27ae60"/></marker>
  </defs>

  <rect x="10" y="20" width="160" height="55" rx="8" fill="#fce4ec"/>
  <text x="90" y="44" text-anchor="middle" fill="#c0392b" font-size="12" font-weight="bold">🚦 仿真场景组</text>
  <text x="90" y="62" text-anchor="middle" fill="#888" font-size="9">成员1 + 成员2</text>

  <rect x="200" y="20" width="160" height="55" rx="8" fill="#e8f4fd"/>
  <text x="280" y="44" text-anchor="middle" fill="#2471a3" font-size="12" font-weight="bold">🧠 算法ML组</text>
  <text x="280" y="62" text-anchor="middle" fill="#888" font-size="9">成员3 + 成员4</text>

  <rect x="390" y="20" width="160" height="55" rx="8" fill="#e8f8f0"/>
  <text x="470" y="44" text-anchor="middle" fill="#27ae60" font-size="12" font-weight="bold">📊 实验分析组</text>
  <text x="470" y="62" text-anchor="middle" fill="#888" font-size="9">成员5 + 成员8</text>

  <rect x="580" y="20" width="130" height="55" rx="8" fill="#e8eaf6"/>
  <text x="645" y="44" text-anchor="middle" fill="#3f51b5" font-size="12" font-weight="bold">📦 交付组</text>
  <text x="645" y="62" text-anchor="middle" fill="#888" font-size="9">成员6 + 成员7</text>

  <path d="M170,47 L190,47" stroke="#e74c3c" stroke-width="2" marker-end="url(#m1)"/>
  <text x="180" y="40" fill="#e74c3c" font-size="8">CSV</text>

  <path d="M360,47 L380,47" stroke="#3498db" stroke-width="2" marker-end="url(#m2)"/>
  <text x="370" y="40" fill="#3498db" font-size="8">model.pkl</text>

  <path d="M550,47 L570,47" stroke="#27ae60" stroke-width="2" marker-end="url(#m3)"/>
  <text x="560" y="40" fill="#27ae60" font-size="8">报告</text>

  <!-- Bottom description -->
  <rect x="80" y="100" width="560" height="26" rx="5" fill="#dfe6e9"/>
  <text x="360" y="118" text-anchor="middle" fill="#636e72" font-size="10">唯一串行链：仿真 → CSV → ML → 算法 → 实验 → 报告。其余并行。</text>
</svg>